# Exported using wow.export v0.1.64
o apkbus05
mtllib apkbus05.mtl
v -0.49297502636909485 0.913580596446991 -0.029873887076973915
v -0.398886114358902 -0.053890276700258255 -0.029873887076973915
v 0.2806333601474762 1.0235916376113892 -0.029873887076973915
v -0.09801778197288513 -0.053890276700258255 -0.2670263946056366
v -0.09801778197288513 0.7762805819511414 -0.28878334164619446
v -0.09801749885082245 -0.053890276700258255 0.35342779755592346
v -0.09801778197288513 0.7229222059249878 0.26788529753685
v 0.18654999136924744 -0.053890276700258255 -0.029873887076973915
vn 0 0 1
vn 0 0 1
vn 0 0 1
vn 1 5.819488890779212e-8 -5.521614454551127e-8
vn 1 7.149697722752535e-8 -1.9062953882098554e-8
vn 1 7.149697722752535e-8 -1.9062953882098554e-8
vn 1 8.479906909997226e-8 1.709023678131416e-8
vn 0 0 1
vt 0.5505291819572449 0.9996508359909058
vt 0.5505291819572449 0.563988447189331
vt 0.2597264051437378 0.9996508359909058
vt 0.2597264051437378 0.563988447189331
vt 0.2597264051437378 0.9996508359909058
vt 0.5505291819572449 0.563988447189331
vt 0.5505291819572449 0.9996508359909058
vt 0.2597264051437378 0.563988447189331
g Geoset0
s 1
usemtl mat_aeriepeaksdetaildoodads_256
f 1/1/1 2/2/2 3/3/3
f 4/4/4 5/5/5 6/6/6
f 7/7/7 6/6/6 5/5/5
f 8/8/8 3/3/3 2/2/2
