# Exported using wow.export v0.1.64
o apkgra04
mtllib apkgra04.mtl
v -0.3147916793823242 0.8718055486679077 0.01809638924896717
v -0.21999861299991608 -0.10294000059366226 0.01809638924896717
v 0.4646361172199249 0.9826472401618958 0.01809638924896717
v -0.09679500013589859 -0.10294000059366226 -0.4242860972881317
v -0.09679500013589859 0.7334750294685364 -0.4462055563926697
v -0.09679500013589859 -0.10294000059366226 0.2008308321237564
v -0.09679500013589859 0.6797111630439758 0.11464527994394302
v 0.3698388934135437 -0.10294000059366226 0.01809638924896717
vn 0 0 1
vn 0 0 1
vn 0 0 1
vn 1 5.8194899565933156e-8 -5.521615165093863e-8
vn 1 7.149699143838006e-8 -1.9062957434812233e-8
vn 1 7.149699143838006e-8 -1.9062957434812233e-8
vn 1 8.479908331082697e-8 1.7090238557671e-8
vn 0 0 1
vt 0.6003403067588806 0.5495401620864868
vt 0.9925239682197571 0.5495401620864868
vt 0.6003403067588806 0.36192548274993896
vt 0.9925239086151123 0.36192548274993896
vt 0.6003403067588806 0.36192548274993896
vt 0.9925239682197571 0.5495401620864868
vt 0.6003403067588806 0.5495401620864868
vt 0.9925239086151123 0.36192548274993896
g Geoset0
s 1
usemtl mat_aeriepeaksdetaildoodads_256
f 1/1/1 2/2/2 3/3/3
f 4/4/4 5/5/5 6/6/6
f 7/7/7 6/6/6 5/5/5
f 8/8/8 3/3/3 2/2/2
