# Exported using wow.export v0.1.64
o dskgra03
mtllib dskgra03.mtl
v -0.001058329944498837 0.39097198843955994 -0.2559329867362976
v -0.029141899198293686 0.016473600640892982 -0.23597599565982819
v -0.001058329944498837 0.6416029930114746 0.006922780070453882
v 0.35568100214004517 -0.019394200295209885 -0.0058738901279866695
v 0.4876309931278229 0.3538689911365509 -0.0058738901279866695
v 0.0012861100258305669 -0.019394200295209885 0.006922780070453882
v 0.0012861100258305669 0.021783599629998207 0.3835560083389282
v -0.001058329944498837 0.6998860239982605 0.42246899008750916
v -0.543025016784668 0.10177099704742432 0.019719399511814117
v -0.446043998003006 0.831866979598999 0.019719399511814117
vn -0.990352988243103 0.07066799700260162 -0.11919400095939636
vn -0.9981889724731445 0.03392630070447922 0.04967439919710159
vn -0.47432199120521545 0.009873160161077976 0.880295991897583
vn 0.020409200340509415 -0.0072145299054682255 0.9997659921646118
vn 0.017621200531721115 -0.003580579999834299 0.9998379945755005
vn -0.46556800603866577 -0.0037072100676596165 0.885004997253418
vn -0.9999939799308777 -0.0034852700773626566 0.0006758950185030699
vn -0.9999939799308777 -0.0035191699862480164 0.0007796980207785964
vn 0.014340599998831749 -0.0009978900197893381 0.9998970031738281
vn 0.015381500124931335 -0.0020430900622159243 0.9998800158500671
vt 0.25933000445365906 0.9995003339718096
vt 0.25933000445365906 0.6164419949054718
vt 0.6178290247917175 0.9995001549832523
vt 0.25933000445365906 0.6164419949054718
vt 0.25933000445365906 0.9995003339718096
vt 0.6178290247917175 0.6164419949054718
vt 0.25933000445365906 0.6164419949054718
vt 0.25933000445365906 0.9995003339718096
vt 0.25933000445365906 0.6164419949054718
vt 0.25933000445365906 0.9995003339718096
g Geoset0
s 1
usemtl mat_duskwooddetails
f 1/1/1 2/2/2 3/3/3
f 4/4/4 5/5/5 6/6/6
f 3/3/3 6/6/6 5/5/5
f 7/7/7 8/8/8 6/6/6
f 3/3/3 6/6/6 8/8/8
f 6/6/6 3/3/3 2/2/2
f 6/6/6 3/3/3 9/9/9
f 10/10/10 9/9/9 3/3/3
