# Exported using wow.export v0.1.64
o dwmroc01
mtllib dwmroc01.mtl
v -0.11028599739074707 -0.01656310074031353 0.19559599459171295
v 0.17678600549697876 -0.01656310074031353 0.25400200486183167
v 0.16123700141906738 0.11165700107812881 0.16902999579906464
v 0.32442501187324524 -0.01656310074031353 -0.10431600362062454
v 0.08199950307607651 0.14718100428581238 -0.16677799820899963
v -0.11134800314903259 0.08494970202445984 -0.00008333330333698541
v -0.00912499986588955 -0.01656310074031353 -0.30162501335144043
v -0.2032420039176941 -0.01656310074031353 -0.082219198346138
vn -0.17654600739479065 0.9634490013122559 0.20148800313472748
vn 0.20793700218200684 0.9288269877433777 0.30666399002075195
vn 0.07490939646959305 0.9874770045280457 0.13884399831295013
vn 0.3120479881763458 0.9466919898986816 -0.08000259846448898
vn -0.00568602979183197 0.9922099709510803 -0.12444800138473511
vn -0.16384899616241455 0.9855650067329407 0.04260779917240143
vn 0.01334690023213625 0.9555879831314087 -0.29440298676490784
vn -0.23633599281311035 0.9700009822845459 -0.05695259943604469
vt 0.29798200726509094 0.47070199251174927
vt 0.2972779870033264 0.6198810040950775
vt 0.21635499596595764 0.5720899999141693
vt 0.14189200103282928 0.6207320094108582
vt 0.07118610292673111 0.562822014093399
vt 0.15932700037956238 0.5042810142040253
vt 0.003505459986627102 0.6190249919891357
vt 0.004846150055527687 0.4701070189476013
g Geoset0
s 1
usemtl mat_dustwallowdetaildoodads_256
f 1/1/1 2/2/2 3/3/3
f 2/2/2 4/4/4 3/3/3
f 3/3/3 4/4/4 5/5/5
f 6/6/6 3/3/3 5/5/5
f 4/4/4 7/7/7 5/5/5
f 7/7/7 8/8/8 5/5/5
f 5/5/5 8/8/8 6/6/6
f 8/8/8 1/1/1 6/6/6
f 6/6/6 1/1/1 3/3/3
