# Exported using wow.export v0.1.64
o elwflo02
mtllib elwflo02.mtl
v 0.04273325204849243 0.956242024898529 0.3073229491710663
v 0.04273325204849243 0.9282564520835876 -0.21360339224338531
v 0.04354633390903473 -0.0520748570561409 0.19682802259922028
v 0.19489729404449463 -0.05207483842968941 0.001887871534563601
v -0.19420906901359558 -0.05207483842968941 0.001887871534563601
v 0.26210886240005493 0.9282562732696533 0.003489370923489332
v -0.25881749391555786 0.9562418460845947 0.0034893734846264124
v 0.04354633390903473 -0.0520748570561409 -0.19227831065654755
vn -0.9999996423721313 -0.0008111489005386829 0.000016811485693324357
vn -0.9999996423721313 -0.0008202710887417197 0.000008405742846662179
vn -0.9999996423721313 -0.0008202710887417197 0.000008405742846662179
vn 0 0.004234384745359421 -0.9999910593032837
vn 0.00011096319212811068 0.004182735458016396 -0.999991238117218
vn 0.00011096319212811068 0.004182735458016396 -0.999991238117218
vn 0.0002219264133600518 0.004131085705012083 -0.9999914169311523
vn -0.9999996423721313 -0.0008293932187370956 -2.287242538075195e-16
vt 0.7457729578018188 0.7408026456832886
vt 0.5048685073852539 0.7408026456832886
vt 0.7457729578018188 0.2519509792327881
vt 0.5048685073852539 0.2519509792327881
vt 0.7457729578018188 0.2519509792327881
vt 0.5048685073852539 0.7408026456832886
vt 0.7457729578018188 0.7408026456832886
vt 0.5048685073852539 0.2519509792327881
g Geoset0
s 1
usemtl mat_newelynngrassflowerrock128
f 1/1/1 2/2/2 3/3/3
f 4/4/4 5/5/5 6/6/6
f 7/7/7 6/6/6 5/5/5
f 8/8/8 3/3/3 2/2/2
