# Exported using wow.export v0.1.64
o elwflo03
mtllib elwflo03.mtl
v -0.295147567987442 0.3998534381389618 -0.0011092701461166143
v 0.30000215768814087 0.5295982360839844 -0.001109264325350523
v -0.22133350372314453 -0.04967447370290756 -0.0029388992115855217
v 0.00151257764082402 -0.04967447370290756 -0.2228107452392578
v 0.00151257764082402 -0.04967447370290756 0.22173678874969482
v 0.0033421607222408056 0.5295982360839844 -0.2995988726615906
v 0.003342166543006897 0.3998534381389618 0.2955508530139923
v 0.2232140451669693 -0.04967447370290756 -0.0029388992115855217
vn -0.002220336114987731 0.01018486451357603 -0.9999456405639648
vn -0.001110170385800302 0.00918582919985056 -0.9999572038650513
vn -0.001110170385800302 0.00918582919985056 -0.9999572038650513
vn -0.9999949932098389 0.003158398438245058 0
vn -0.9999936819076538 0.00354386237449944 0.00016523500380571932
vn -0.9999936819076538 0.00354386237449944 0.00016523500380571932
vn -0.9999922513961792 0.003929331433027983 0.00033047262695617974
vn 0 0.008186769671738148 -0.9999665021896362
vt 0.9964143633842468 0.7408026456832886
vt 0.7416950464248657 0.7408026456832886
vt 0.9964143633842468 0.5055741667747498
vt 0.7416950464248657 0.5055741667747498
vt 0.9964143633842468 0.5055741667747498
vt 0.7416950464248657 0.7408026456832886
vt 0.9964143633842468 0.7408026456832886
vt 0.7416950464248657 0.5055741667747498
g Geoset0
s 1
usemtl mat_newelynngrassflowerrock128
f 1/1/1 2/2/2 3/3/3
f 4/4/4 5/5/5 6/6/6
f 7/7/7 6/6/6 5/5/5
f 8/8/8 3/3/3 2/2/2
