# Exported using wow.export v0.1.64
o elwgra07
mtllib elwgra07.mtl
v -0.4046024680137634 0.5308414101600647 0.0029353040736168623
v 0.40283337235450745 0.5127862095832825 0.0029353040736168623
v -0.30445942282676697 -0.05808683857321739 0.0004530776641331613
v -0.0021257128100842237 -0.05808679386973381 -0.29784584045410156
v -0.0021257128100842237 -0.058086831122636795 0.3052690029144287
v 0.0003564790531527251 0.5127862095832825 -0.4020237624645233
v 0.0003564779763109982 0.5308413505554199 0.40541207790374756
v 0.2986554205417633 -0.05808683857321739 0.0004530776641331613
vn 0.0002452181652188301 0.010966278612613678 -0.9999398589134216
vn 0.00012260908260941505 0.011118168011307716 -0.9999381899833679
vn 0.00012260908260941505 0.011118168011307716 -0.9999381899833679
vn -0.9999905228614807 0.004348082467913628 0
vn -0.9999908208847046 0.004289476200938225 -0.000018249114873469807
vn -0.9999908208847046 0.004289476200938225 -0.000018249114873469807
vn -0.9999910593032837 0.004230869933962822 -0.0000364981715392787
vn 0 0.011270057410001755 -0.9999364614486694
vt 0.7556407451629639 0.9992567896842957
vt 0.49697428941726685 0.9992567896842957
vt 0.7556407451629639 0.7543664574623108
vt 0.49697428941726685 0.7543664574623108
vt 0.7556407451629639 0.7543664574623108
vt 0.49697428941726685 0.9992567896842957
vt 0.7556407451629639 0.9992567896842957
vt 0.49697428941726685 0.7543664574623108
g Geoset0
s 1
usemtl mat_newelynngrassflowerrock128
f 1/1/1 2/2/2 3/3/3
f 4/4/4 5/5/5 6/6/6
f 7/7/7 6/6/6 5/5/5
f 8/8/8 3/3/3 2/2/2
