# Exported using wow.export v0.1.64
o elwgra08
mtllib elwgra08.mtl
v -0.3065876066684723 0.3774825632572174 0.00014325186202768236
v 0.3051062524318695 0.363804429769516 0.00014325186202768236
v -0.29871347546577454 -0.026443596929311752 -0.001833928981795907
v -0.0017290968680754304 -0.02644358202815056 -0.29228007793426514
v -0.0017290968680754304 -0.026443613693118095 0.2971276342868805
v 0.00024806681904010475 0.2474265843629837 -0.30669206380844116
v 0.0002480653638485819 0.2611047327518463 0.30500173568725586
v 0.2906942367553711 -0.026443596929311752 -0.001833928981795907
vn 0.00028382064192555845 0.012692601419985294 -0.9999194145202637
vn 0.00014191033551469445 0.012912140227854252 -0.9999166131019592
vn 0.00014191033551469445 0.012912140227854252 -0.9999166131019592
vn -0.9999739527702332 0.00721915764734149 1.4365116041137327e-10
vn -0.9999751448631287 0.007049568463116884 -0.000029676066333195195
vn -0.9999751448631287 0.007049568463116884 -0.000029676066333195195
vn -0.9999763369560242 0.006879980675876141 -0.0000593518816458527
vn 0 0.013131675310432911 -0.99991375207901
vt 0.2563314139842987 0.9992567896842957
vt 0.003585636615753174 0.9992567896842957
vt 0.2563314139842987 0.8775548934936523
vt 0.003585636615753174 0.8775548934936523
vt 0.2563314139842987 0.8775548934936523
vt 0.003585636615753174 0.9992567896842957
vt 0.2563314139842987 0.9992567896842957
vt 0.003585636615753174 0.8775548934936523
g Geoset0
s 1
usemtl mat_newelynngrassflowerrock128
f 1/1/1 2/2/2 3/3/3
f 4/4/4 5/5/5 6/6/6
f 7/7/7 6/6/6 5/5/5
f 8/8/8 3/3/3 2/2/2
