# Exported using wow.export v0.1.64
o elwgra01
mtllib elwgra01.mtl
v -0.3052106201648712 0.41577452421188354 0.001953975297510624
v 0.3064832389354706 0.40209639072418213 0.001953975297510624
v -0.29733648896217346 -0.030383186414837837 -0.000023202808733913116
v -0.002895290730521083 -0.03038318268954754 -0.2904496490955353
v 0.002248216886073351 -0.030383193865418434 0.2989356517791748
v -0.0010439554462209344 0.40209639072418213 -0.3048783838748932
v 0.004294033627957106 0.41577452421188354 0.3067922294139862
v 0.29207125306129456 -0.030383186414837837 -0.000023202808733913116
vn 0.00025694805663079023 0.011490845121443272 -0.9999339580535889
vn 0.00012847402831539512 0.011670193634927273 -0.9999318718910217
vn 0.00012847402831539512 0.011670193634927273 -0.9999318718910217
vn -0.9999839067459106 0.004571827594190836 0.0033666864037513733
vn -0.9999842643737793 0.004502621479332447 0.0033475642558187246
vn -0.9999842643737793 0.004502621479332447 0.0033475642558187246
vn -0.999984622001648 0.004433414898812771 0.0033284418750554323
vn 0 0.011849542148411274 -0.9999297857284546
vt 0.9944407939910889 0.9992567896842957
vt 0.759456992149353 0.9992567896842957
vt 0.9944407939910889 0.7543664574623108
vt 0.759456992149353 0.7543664574623108
vt 0.9944407939910889 0.7543664574623108
vt 0.759456992149353 0.9992567896842957
vt 0.9944407939910889 0.9992567896842957
vt 0.759456992149353 0.7543664574623108
g Geoset0
s 1
usemtl mat_newelynngrassflowerrock128
f 1/1/1 2/2/2 3/3/3
f 4/4/4 5/5/5 6/6/6
f 7/7/7 6/6/6 5/5/5
f 8/8/8 3/3/3 2/2/2
