# Exported using wow.export v0.1.64
o elwgra03
mtllib elwgra03.mtl
v -0.30541396141052246 0.2611047625541687 0.0005790743744000793
v 0.30627989768981934 0.2474266141653061 0.0005790743744000793
v -0.2975398600101471 -0.026443596929311752 -0.001398106454871595
v -0.0005554503295570612 -0.02644357830286026 -0.2918442487716675
v -0.0005554503295570612 -0.026443611830472946 0.29756343364715576
v 0.0014217139687389135 0.2474266141653061 -0.3062562644481659
v 0.0014217131538316607 0.2611047327518463 0.3054375648498535
v 0.2918678820133209 -0.026443596929311752 -0.001398106454871595
vn 0.00039872885099612176 0.017831355333328247 -0.9998409152030945
vn 0.00019936445460189134 0.018270758911967278 -0.9998330473899841
vn 0.00019936445460189134 0.018270758911967278 -0.9998330473899841
vn -0.9999739527702332 0.007219222374260426 0
vn -0.9999751448631287 0.00704963319003582 -0.000029676031772396527
vn -0.9999751448631287 0.00704963319003582 -0.000029676031772396527
vn -0.9999763369560242 0.006880046334117651 -0.00005935165972914547
vn 0 0.01871015876531601 -0.9998249411582947
vt 0.2563314139842987 0.8736529350280762
vt 0.003585636615753174 0.8736529350280762
vt 0.2563314139842987 0.7543664574623108
vt 0.003585636615753174 0.7543664574623108
vt 0.2563314139842987 0.7543664574623108
vt 0.003585636615753174 0.8736529350280762
vt 0.2563314139842987 0.8736529350280762
vt 0.003585636615753174 0.7543664574623108
g Geoset0
s 1
usemtl mat_newelynngrassflowerrock128
f 1/1/1 2/2/2 3/3/3
f 4/4/4 5/5/5 6/6/6
f 7/7/7 6/6/6 5/5/5
f 8/8/8 3/3/3 2/2/2
