# Exported using wow.export v0.1.64
o elwgra06
mtllib elwgra06.mtl
v 0.002334610791876912 0.39646008610725403 0.21274401247501373
v -0.0000611993673373945 0.373665452003479 -0.21389465034008026
v -0.00010723652667365968 -0.023391118273139 0.21269573271274567
v 0.21126827597618103 -0.023391077294945717 -0.0015152029227465391
v -0.21257369220256805 -0.023391077294945717 -0.0015152029227465391
v 0.21143752336502075 0.26888781785964966 0.00008050139877013862
v -0.2104683220386505 0.33627834916114807 0.00008050139877013862
v -0.00010723652667365968 -0.023391118273139 -0.21114619076251984
vn -0.9999809861183167 0.0058152624405920506 0.0020465031266212463
vn -0.9999950528144836 0.0029654628597199917 0.001023200573399663
vn -0.9999950528144836 0.0029654628597199917 0.001023200573399663
vn 0 0.014150223694741726 -0.9998998641967773
vn 0.0009175286977551877 0.01281940657645464 -0.9999173879623413
vn 0.0009175286977551877 0.01281940657645464 -0.9999173879623413
vn 0.0018350534373894334 0.011488557793200016 -0.9999323487281799
vn -1 0.00011594610259635374 0
vt 0.49710509181022644 0.9992567300796509
vt 0.24830642342567444 0.9992567300796509
vt 0.49710509181022644 0.7447046041488647
vt 0.24830642342567444 0.7447046041488647
vt 0.49710509181022644 0.7447046041488647
vt 0.24830642342567444 0.9992567300796509
vt 0.49710509181022644 0.9992567300796509
vt 0.24830642342567444 0.7447046041488647
g Geoset0
s 1
usemtl mat_newelynngrassflowerrock128
f 1/1/1 2/2/2 3/3/3
f 4/4/4 5/5/5 6/6/6
f 7/7/7 6/6/6 5/5/5
f 8/8/8 3/3/3 2/2/2
