# Exported using wow.export v0.1.64
o elwgra04
mtllib elwgra04.mtl
v -0.0019142481032758951 0.5708274841308594 0.502844512462616
v -0.0019142481032758951 0.556159257888794 -0.4910302758216858
v 0.001239982433617115 -0.04890396073460579 0.37957829236984253
v 0.36836734414100647 -0.048903919756412506 0.007484342437237501
v -0.3740083575248718 -0.048903919756412506 0.007484167814254761
v 0.49660009145736694 0.5561591386795044 0.004329988267272711
v -0.4972745180130005 0.5708273649215698 0.004329754505306482
v 0.001239982433617115 -0.04890396073460579 -0.36279743909835815
vn -0.9999869465827942 -0.005104591604322195 0.00010579536319710314
vn -0.9999867081642151 -0.00515879038721323 0.000052897677960572764
vn -0.9999867081642151 -0.00515879038721323 0.000052897677960572764
vn 1.4855454821827152e-7 -0.0037123747169971466 -0.999993085861206
vn -0.000026676612833398394 -0.0036737772170454264 -0.9999932646751404
vn -0.000026676612833398394 -0.0036737772170454264 -0.9999932646751404
vn -0.00005350178253138438 -0.003635179717093706 -0.9999933838844299
vn -0.9999864101409912 -0.005212988704442978 0
vt 0.9924672842025757 0.24804902076721191
vt 0.5048685073852539 0.24804902076721191
vt 0.9924672842025757 0.005574166774749756
vt 0.5048685073852539 0.005574166774749756
vt 0.9924672842025757 0.005574166774749756
vt 0.5048685073852539 0.24804902076721191
vt 0.9924672842025757 0.24804902076721191
vt 0.5048685073852539 0.005574166774749756
g Geoset0
s 1
usemtl mat_newelynngrassflowerrock128
f 1/1/1 2/2/2 3/3/3
f 4/4/4 5/5/5 6/6/6
f 7/7/7 6/6/6 5/5/5
f 8/8/8 3/3/3 2/2/2
