# Exported using wow.export v0.1.64
o elwroc02
mtllib elwroc02.mtl
v -0.04603780061006546 -0.024586400017142296 -0.08217970281839371
v -0.10292799770832062 -0.024586400017142296 0.016356900334358215
v -0.050836898386478424 0.1568859964609146 0.015690000727772713
v 0.010851900093257427 -0.024586400017142296 0.11489400267601013
v 0.0484481006860733 0.22471599280834198 0.0247661005705595
v 0.020500000566244125 0.1418129950761795 -0.043498601764440536
v 0.12463299930095673 -0.024586400017142296 0.016356900334358215
v 0.06774280220270157 -0.024586400017142296 -0.08217970281839371
vn -0.18622499704360962 0.9345409870147705 -0.3032369911670685
vn -0.39072299003601074 0.9172220230102539 0.0777146965265274
vn -0.20420299470424652 0.9789190292358398 0.004409019835293293
vn -0.04345560073852539 0.9237859845161438 0.3804340064525604
vn 0.1311109960079193 0.9913240075111389 0.009271950460970402
vn -0.010085400193929672 0.9688299894332886 -0.24751999974250793
vn 0.37911200523376465 0.9213219881057739 0.08625289797782898
vn 0.19836999475955963 0.9341009855270386 -0.29682600498199463
vt 0.4871230125427246 0.361644983291626
vt 0.49526700377464294 0.025867998600006104
vt 0.3007200062274933 0.16606998443603516
vt 0.2598010003566742 0.02860701084136963
vt 0.1274610012769699 0.11605000495910645
vt 0.15371200442314148 0.26693999767303467
vt 0.0159939993172884 0.029259026050567627
vt 0.016575800254940987 0.36066097021102905
g Geoset0
s 1
usemtl mat_newelynngrassflowerrock128
f 1/1/1 2/2/2 3/3/3
f 2/2/2 4/4/4 3/3/3
f 3/3/3 4/4/4 5/5/5
f 6/6/6 3/3/3 5/5/5
f 4/4/4 7/7/7 5/5/5
f 7/7/7 8/8/8 5/5/5
f 5/5/5 8/8/8 6/6/6
f 8/8/8 1/1/1 6/6/6
f 6/6/6 1/1/1 3/3/3
