# Exported using wow.export v0.1.64
o sivbus02
mtllib sivbus02.mtl
v -0.4516107738018036 0.47879400849342346 -0.13122159242630005
v -0.3936668932437897 -0.02771041728556156 -0.10524720698595047
v 0.4289875030517578 0.47685253620147705 0.11298990249633789
v 0.2987741529941559 -0.02771041728556156 -0.29327648878097534
v 0.27721667289733887 0.3833544850349426 -0.2854742407798767
v -0.28819194436073303 -0.02771041728556156 0.2835334241390228
v -0.3047408163547516 0.3850879371166229 0.2864138185977936
v -0.13508982956409454 -0.028514478355646133 -0.5008577108383179
v -0.12531623244285583 0.5900799036026001 -0.4469614028930664
v 0.12421202659606934 -0.028514478355646133 0.46686995029449463
v 0.12594136595726013 0.605103611946106 0.4907446503639221
v 0.39934828877449036 -0.02771041728556156 0.11467533558607101
vn -0.130744069814682 0.009223324246704578 0.9913732409477234
vn -0.1307540237903595 0.00923988875001669 0.9913718104362488
vn -0.1307540237903595 0.00923988875001669 0.9913718104362488
vn 0.42338526248931885 0.01402603555470705 0.9058411717414856
vn 0.4234025776386261 0.013997252099215984 0.9058334827423096
vn 0.4234025776386261 0.013997252099215984 0.9058334827423096
vn 0.4234198331832886 0.013968470506370068 0.9058258533477783
vn 0.871235191822052 0.006574268452823162 -0.49082180857658386
vn 0.8711893558502197 0.006497932132333517 -0.49090418219566345
vn 0.8711893558502197 0.006497932132333517 -0.49090418219566345
vn 0.8711435198783875 0.00642160139977932 -0.4909864664077759
vn -0.13076400756835938 0.0092564532533288 0.9913703203201294
vt 0.50390625 0.24609375
vt 0.50390625 0.00390625
vt 0.00390625 0.24609375
vt 0.00390625 0.00390625
vt 0.00390625 0.24609375
vt 0.50390625 0.00390625
vt 0.50390625 0.24609375
vt 0.00390625 0.00390625
vt 0.00390625 0.24609375
vt 0.50390625 0.00390625
vt 0.50390625 0.24609375
vt 0.00390625 0.00390625
g Geoset0
s 1
usemtl mat_silverpinedetaildoodads
f 1/1/1 2/2/2 3/3/3
f 4/4/4 5/5/5 6/6/6
f 7/7/7 6/6/6 5/5/5
f 8/8/8 9/9/9 10/10/10
f 11/11/11 10/10/10 9/9/9
f 12/12/12 3/3/3 2/2/2
