# Exported using wow.export v0.1.64
o sivflo03
mtllib sivflo03.mtl
v -0.14692142605781555 0.7397595047950745 0.004849010147154331
v -0.1078103631734848 -0.003640456823632121 0.004849010147154331
v 0.13739660382270813 0.738031268119812 0.004849010147154331
v 2.809410091231257e-7 -0.003640401642769575 -0.14481301605701447
v -0.0028665943536907434 0.731616199016571 -0.15773896872997284
v 2.809410091231257e-7 -0.003640401642769575 0.16003574430942535
v -0.0028665943536907434 0.7455250024795532 0.17296172678470612
v 0.10734931379556656 -0.003640456823632121 0.004849010147154331
vn 6.722039916882971e-13 1.1058896853821665e-10 1
vn 3.3610199584414857e-13 1.1070007410740601e-10 1
vn 3.3610199584414857e-13 1.1070007410740601e-10 1
vn 0.9999923706054688 0.003899119794368744 0
vn 0.9999924898147583 0.0038643148727715015 -0.0001693178783170879
vn 0.9999924898147583 0.0038643148727715015 -0.0001693178783170879
vn 0.9999926090240479 0.0038295097183436155 -0.00033863578573800623
vn 0 1.1081120049327708e-10 1
vt 0.4921875 0.99609375
vt 0.4921875 0.50390625
vt 0.25390625 0.99609375
vt 0.25390625 0.50390625
vt 0.25390625 0.99609375
vt 0.4921875 0.50390625
vt 0.4921875 0.99609375
vt 0.25390625 0.50390625
g Geoset0
s 1
usemtl mat_silverpinedetaildoodads
f 1/1/1 2/2/2 3/3/3
f 4/4/4 5/5/5 6/6/6
f 7/7/7 6/6/6 5/5/5
f 8/8/8 3/3/3 2/2/2
