# Exported using wow.export v0.1.64
o sivflo01
mtllib sivflo01.mtl
v -0.16226564347743988 1.1982324123382568 0.004849010147154331
v -0.12279559671878815 -0.02961696870625019 0.004849010147154331
v 0.16226620972156525 1.2560169696807861 0.004849010147154331
v 2.8038530786034244e-7 -0.02961690165102482 -0.09286309033632278
v 2.5289421046181815e-7 1.1261157989501953 -0.10139203071594238
v 2.8038530786034244e-7 -0.02961690165102482 0.10828432440757751
v 2.5289421046181815e-7 1.1405242681503296 0.11681326478719711
v 0.12279611080884933 -0.02961696870625019 0.004849010147154331
vn -1.1416484077542144e-11 6.41177111404545e-11 1
vn -5.708242038771072e-12 6.285202913680621e-11 1
vn -5.708242038771072e-12 6.285202913680621e-11 1
vn 1 2.3786739689057868e-8 0
vn 1 2.3645945645967004e-8 -1.6316515916159346e-9
vn 1 2.3645945645967004e-8 -1.6316515916159346e-9
vn 1 2.350515337923298e-8 -3.2633031832318693e-9
vn 0 6.158635407205182e-11 1
vt 0.9921875 0.9921875
vt 0.9921875 0.0078125
vt 0.75390625 0.9921875
vt 0.75390625 0.0078125
vt 0.75390625 0.9921875
vt 0.9921875 0.0078125
vt 0.9921875 0.9921875
vt 0.75390625 0.0078125
g Geoset0
s 1
usemtl mat_silverpinedetaildoodads
f 1/1/1 2/2/2 3/3/3
f 4/4/4 5/5/5 6/6/6
f 7/7/7 6/6/6 5/5/5
f 8/8/8 3/3/3 2/2/2
