# Exported using wow.export v0.1.64
o tifbus01
mtllib tifbus01.mtl
v 0.2317446917295456 0.35488221049308777 0.586319625377655
v 0.3610462248325348 0.1511801928281784 -0.08452548086643219
v -0.3716226816177368 0.1511801928281784 0.2943798899650574
v -0.004256965592503548 -0.05765695869922638 -0.03985181450843811
v 0.49924781918525696 0.28767120838165283 -0.1497519463300705
v 0.042489781975746155 0.24520373344421387 -0.7119534015655518
v 0.6430190205574036 0.37769243121147156 -0.7070926427841187
v -0.6730129718780518 0.35488221049308777 -0.504996120929718
v -0.42387309670448303 0.23561163246631622 0.11726608872413635
v -0.07886463403701782 0.23561163246631622 -0.6773539185523987
v 0.04920746758580208 -0.05765697732567787 -0.03203144297003746
v -0.012682506814599037 -0.05765697732567787 -0.13512365520000458
vn -0.16306209564208984 0.9348763823509216 -0.3153044283390045
vn -0.24594895541667938 0.8445913195610046 -0.4755782186985016
vn -0.24594895541667938 0.8445913195610046 -0.4755782186985016
vn -0.4833478629589081 0.8102402091026306 0.33149001002311707
vn -0.35600656270980835 0.908061683177948 0.22064292430877686
vn -0.35600656270980835 0.908061683177948 0.22064292430877686
vn -0.21511134505271912 0.9713115096092224 0.10139552503824234
vn 0.22279201447963715 0.9700549840927124 0.09673195332288742
vn 0.4029855728149414 0.898325502872467 0.17496846616268158
vn 0.4029855728149414 0.898325502872467 0.17496846616268158
vn 0.5655542612075806 0.7873070240020752 0.24555259943008423
vn -0.31882333755493164 0.7199234962463379 -0.6164915561676025
vt 0.5 0.25
vt 0.2578125 0.25
vt 0.5 0.00390625
vt 0.2578125 0.00390625
vt 0.00390625 0.00390625
vt 0.2578125 0.24609375
vt 0.00390625 0.24609375
vt 0.50390625 0.24609375
vt 0.50390625 0.00390625
vt 0.2578125 0.24609375
vt 0.2578125 0.00390625
vt 0.2578125 0.00390625
g Geoset0
s 1
usemtl mat_tirisfalldetaildoodads
f 1/1/1 2/2/2 3/3/3
f 4/4/4 5/5/5 6/6/6
f 7/7/7 6/6/6 5/5/5
f 8/8/8 9/9/9 10/10/10
f 11/11/11 10/10/10 9/9/9
f 12/12/12 3/3/3 2/2/2
