# Exported using wow.export v0.1.64
o tifgra01
mtllib tifgra01.mtl
v -0.35448411107063293 1.0568675994873047 0.0038932343013584614
v -0.25975725054740906 -0.01026767399162054 0.0038932347670197487
v 0.33413392305374146 1.053877830505371 0.0038932343013584614
v 0.0013601375976577401 -0.01026757899671793 -0.35858821868896484
v -0.005583433900028467 0.7558939456939697 -0.38989487290382385
v 0.0013601375976577401 -0.01026757899671793 0.37975549697875977
v -0.005583433900028467 0.7799561023712158 0.41106218099594116
v 0.2613595128059387 -0.01026767399162054 0.0038932347670197487
vn 4.323365396154827e-13 9.95773324907745e-11 1
vn 2.1616826980774134e-13 9.969797210018783e-11 1
vn 2.1616826980774134e-13 9.969797210018783e-11 1
vn 0.9999589323997498 0.009062431752681732 0
vn 0.9999600648880005 0.008929702453315258 -0.00027782004326581955
vn 0.9999600648880005 0.008929702453315258 -0.00027782004326581955
vn 0.9999611377716064 0.00879697222262621 -0.0005556404357776046
vn 0 9.981861170960116e-11 1
vt 0.49609375 0.49609375
vt 0.49609375 0.25390625
vt 0.2578125 0.49609375
vt 0.2578125 0.25390625
vt 0.2578125 0.49609375
vt 0.49609375 0.25390625
vt 0.49609375 0.49609375
vt 0.2578125 0.25390625
g Geoset0
s 1
usemtl mat_tirisfalldetaildoodads
f 1/1/1 2/2/2 3/3/3
f 4/4/4 5/5/5 6/6/6
f 7/7/7 6/6/6 5/5/5
f 8/8/8 3/3/3 2/2/2
