# Exported using wow.export v0.1.64
o tifpla01
mtllib tifpla01.mtl
v -0.8508140444755554 0.6130694150924683 0.0556495375931263
v -0.5632355809211731 -0.10330682247877121 0.5650956630706787
v -0.49861082434654236 0.3727998435497284 -0.46776193380355835
v 0.049408067017793655 -0.09750902652740479 0.012017294764518738
v 0.2719612419605255 0.4272203743457794 -0.6410120129585266
v -0.5089519619941711 0.3535364866256714 0.18505936861038208
v -0.018245168030261993 0.9486278891563416 -0.32533717155456543
v -0.023992527276277542 -0.112691231071949 0.09135110676288605
v -0.5209937691688538 0.4555392265319824 0.5172877311706543
v 0.570878803730011 0.13787563145160675 0.44981423020362854
v 0.013020279817283154 0.8579185009002686 0.6103254556655884
v -0.014539207331836224 -0.10330674052238464 0.07104724645614624
vn 0.49366021156311035 0.798271656036377 0.34505361318588257
vn 0.3452959656715393 0.8271305561065674 0.4434249997138977
vn 0.3452959656715393 0.8271305561065674 0.4434249997138977
vn 0.3135380446910858 0.5083566308021545 0.8020395636558533
vn 0.4070941209793091 0.3107336461544037 0.8589056730270386
vn 0.4070941209793091 0.3107336461544037 0.8589056730270386
vn 0.4899570345878601 0.05990894138813019 0.8696855902671814
vn 0.1034478023648262 0.6088380813598633 -0.7865206599235535
vn 0.04299773648381233 0.4538061320781708 -0.8900624513626099
vn 0.04299773648381233 0.4538061320781708 -0.8900624513626099
vn -0.018017131835222244 0.2844725251197815 -0.9585148692131042
vn 0.2190510630607605 0.8308948874473572 0.5114980936050415
vt 0.74609375 0.99609375
vt 0.74609375 0.625
vt 0.5078125 0.99609375
vt 0.5078125 0.625
vt 0.5078125 0.99609375
vt 0.74609375 0.625
vt 0.74609375 0.99609375
vt 0.5078125 0.625
vt 0.5078125 0.99609375
vt 0.74609375 0.625
vt 0.74609375 0.99609375
vt 0.5078125 0.625
g Geoset0
s 1
usemtl mat_tirisfalldetaildoodads
f 1/1/1 2/2/2 3/3/3
f 4/4/4 5/5/5 6/6/6
f 7/7/7 6/6/6 5/5/5
f 8/8/8 9/9/9 10/10/10
f 11/11/11 10/10/10 9/9/9
f 12/12/12 3/3/3 2/2/2
