# Exported using wow.export v0.1.64
o tifroc02
mtllib tifroc02.mtl
v 0.00020773331925738603 -0.006215189583599567 -0.10923310369253159
v -0.11499268561601639 -0.006215189583599567 -0.09201627224683762
v -0.08672695606946945 0.04476585239171982 -0.03243385627865791
v -0.12142748385667801 -0.006215189583599567 0.06193764507770538
v -0.0038043728563934565 0.05889023095369339 0.043305907398462296
v 0.027216166257858276 0.03414682671427727 -0.03626174479722977
v 0.030028121545910835 -0.006215189583599567 0.09029984474182129
v 0.07271811366081238 -0.006215189583599567 -0.01807502843439579
vn 0.08711783587932587 0.9779823422431946 -0.1896340399980545
vn -0.19597497582435608 0.9741870164871216 -0.11204207688570023
vn -0.09082431346178055 0.9935290217399597 -0.06819871068000793
vn -0.1894412785768509 0.9709557294845581 0.14614011347293854
vn 0.0662429928779602 0.9932296872138977 0.09542857855558395
vn 0.1305658370256424 0.9856684803962708 -0.1068185567855835
vn 0.11807113140821457 0.9627986550331116 0.24305956065654755
vn 0.2669665515422821 0.9631050825119019 -0.03402198106050491
vt 0.13671875 0.6328125
vt 0.13671875 0.74609375
vt 0.09765625 0.7109375
vt 0.0703125 0.74609375
vt 0.03125 0.703125
vt 0.06640625 0.6640625
vt 0.00390625 0.74609375
vt 0.00390625 0.62890625
g Geoset0
s 1
usemtl mat_tirisfalldetaildoodads
f 1/1/1 2/2/2 3/3/3
f 2/2/2 4/4/4 3/3/3
f 3/3/3 4/4/4 5/5/5
f 6/6/6 3/3/3 5/5/5
f 4/4/4 7/7/7 5/5/5
f 7/7/7 8/8/8 5/5/5
f 5/5/5 8/8/8 6/6/6
f 8/8/8 1/1/1 6/6/6
f 6/6/6 1/1/1 3/3/3
