# Exported using wow.export v0.1.64
o wetflo05
mtllib wetflo05.mtl
v -0.2744213938713074 0.43226584792137146 0.44536876678466797
v -0.4762135148048401 0.5309926867485046 -0.1767956018447876
v -0.1367255598306656 -0.08729656040668488 -0.02039879560470581
v -0.3224015235900879 0.34669557213783264 -0.5281891226768494
v 0.3090292513370514 0.49539387226104736 -0.39880773425102234
v 0.0580114871263504 -0.12810945510864258 -0.13754697144031525
v -0.0766838788986206 0.4998578131198883 0.384863942861557
v 0.3353950083255768 0.5567993521690369 0.04517239332199097
v 0.049251798540353775 -0.08548027276992798 0.15338321030139923
v -0.2966844439506531 0.6581800580024719 -0.020163947716355324
v 0.23733587563037872 0.7151215672492981 -0.015503530390560627
v -0.05632516369223595 -0.08548024296760559 -0.019168198108673096
v -0.056139979511499405 0.7074692249298096 0.26226961612701416
v 0.0022596996277570724 0.772436261177063 -0.34423327445983887
v -0.03059234842658043 -0.08548025041818619 -0.014548767358064651
vn -0.8971275687217712 -0.43651071190834045 0.06797406077384949
vn -0.8971275687217712 -0.43651071190834045 0.06797406077384949
vn -0.8971275687217712 -0.43651071190834045 0.06797406077384949
vn 0.4680441915988922 -0.773210346698761 -0.42787888646125793
vn 0.4680441915988922 -0.773210346698761 -0.42787888646125793
vn 0.4680441915988922 -0.773210346698761 -0.42787888646125793
vn -0.9164751172065735 0.22741219401359558 -0.32917627692222595
vn -0.9164751172065735 0.22741219401359558 -0.32917627692222595
vn -0.9164751172065735 0.22741219401359558 -0.32917627692222595
vn 0.027954744175076485 0.004669837187975645 -0.9995982646942139
vn 0.027954744175076485 0.004669837187975645 -0.9995982646942139
vn 0.027954744175076485 0.004669837187975645 -0.9995982646942139
vn -0.9995648860931396 0.001345035620033741 -0.029464732855558395
vn -0.9995648860931396 0.001345035620033741 -0.029464732855558395
vn -0.9995648860931396 0.001345035620033741 -0.029464732855558395
vt 1.0227032899856567 0.8179551362991333
vt 0.7058135867118835 0.8227860331535339
vt 0.8391520380973816 0.5874559879302979
vt 1.0227032899856567 0.8179551362991333
vt 0.7058135867118835 0.8227860331535339
vt 0.8391520380973816 0.5874559879302979
vt 1.0227032899856567 0.8179551362991333
vt 0.7058135867118835 0.8227860331535339
vt 0.8391520380973816 0.5874559879302979
vt 1.0227032899856567 0.8179551362991333
vt 0.7058135867118835 0.8227860331535339
vt 0.8391520380973816 0.5874559879302979
vt 1.0227032899856567 0.8179551362991333
vt 0.7058135867118835 0.8227860331535339
vt 0.8391520380973816 0.5874559879302979
g Geoset0
s 1
usemtl mat_wetlandsdetaildoodads_256
f 1/1/1 2/2/2 3/3/3
f 4/4/4 5/5/5 6/6/6
f 7/7/7 8/8/8 9/9/9
f 10/10/10 11/11/11 12/12/12
f 13/13/13 14/14/14 15/15/15
