# Exported using wow.export v0.1.64
o wetgra02
mtllib wetgra02.mtl
v -0.3581939935684204 1.620460033416748 0.01864670030772686
v -0.36841100454330444 -0.029169199988245964 0.01864670030772686
v 0.36118099093437195 1.3389300107955933 0.01864670030772686
v -0.004558890126645565 -0.029169199988245964 -0.31404998898506165
v -0.004558890126645565 1.5977400541305542 -0.31404998898506165
v -0.004558890126645565 -0.029169199988245964 0.31898900866508484
v -0.004558890126645565 1.5205999612808228 0.31898900866508484
v 0.3713969886302948 -0.029169199988245964 0.01864670030772686
vn 0 0 1
vn 0 0 1
vn 0 0 1
vn 1 4.6797598685088815e-8 0
vn 1 4.79622990212647e-8 6.293360055309449e-9
vn 1 4.79622990212647e-8 6.293360055309449e-9
vn 1 4.912699935744058e-8 1.2586699682515246e-8
vn 0 0 1
vt 0.19062599539756775 0.991567250341177
vt 0.19062599539756775 0.6292060017585754
vt 0.00610323017463088 0.991567250341177
vt 0.00610323017463088 0.6292060017585754
vt 0.00610323017463088 0.991567250341177
vt 0.19062599539756775 0.6292060017585754
vt 0.19062599539756775 0.991567250341177
vt 0.00610323017463088 0.6292060017585754
g Geoset0
s 1
usemtl mat_wetlandsdetaildoodads_256
f 1/1/1 2/2/2 3/3/3
f 4/4/4 5/5/5 6/6/6
f 7/7/7 6/6/6 5/5/5
f 8/8/8 3/3/3 2/2/2
